<?xml version="1.0" encoding="utf-8"?>
<!-- Generator: Adobe Illustrator 16.0.0, SVG Export Plug-In . SVG Version: 6.00 Build 0)  -->
<!DOCTYPE svg PUBLIC "-//W3C//DTD SVG 1.1//EN" "http://www.w3.org/Graphics/SVG/1.1/DTD/svg11.dtd">
<svg version="1.1" id="Layer_1" xmlns="http://www.w3.org/2000/svg" xmlns:xlink="http://www.w3.org/1999/xlink" x="0px" y="0px"
	 width="144.073px" height="160.422px" viewBox="507.4 205.589 144.073 160.422"
	 enable-background="new 507.4 205.589 144.073 160.422" xml:space="preserve">
<path d="M523.365,366.011h15.966v-15.966h80.21v15.966h15.966v-15.966h15.966V229.633c0-13.272-10.772-24.044-24.045-24.044h-95.984
	c-13.272,0-24.044,10.771-24.044,24.044v120.221h15.965V366.011z M627.621,333.889c-4.425,0-8.08-3.655-8.08-8.079
	c0-4.425,3.655-8.079,8.08-8.079c4.424,0,8.078,3.654,8.078,8.079C635.699,330.233,632.045,333.889,627.621,333.889z
	 M547.409,221.746h64.054v15.966h-64.054V221.746z M523.365,253.677h112.142v48.089H523.365V253.677z M531.444,317.923
	c4.424,0,8.079,3.654,8.079,8.079c0,4.424-3.654,8.079-8.079,8.079c-4.424,0-8.079-3.655-8.079-8.079
	C523.365,321.385,527.02,317.923,531.444,317.923z"/>
</svg>
