<?xml version="1.0" encoding="utf-8"?>
<!-- Generator: Adobe Illustrator 16.0.0, SVG Export Plug-In . SVG Version: 6.00 Build 0)  -->
<!DOCTYPE svg PUBLIC "-//W3C//DTD SVG 1.1//EN" "http://www.w3.org/Graphics/SVG/1.1/DTD/svg11.dtd">
<svg version="1.1" id="Layer_1" xmlns="http://www.w3.org/2000/svg" xmlns:xlink="http://www.w3.org/1999/xlink" x="0px" y="0px"
	 width="537.153px" height="539.759px" viewBox="341.664 40.128 537.153 539.759"
	 enable-background="new 341.664 40.128 537.153 539.759" xml:space="preserve">
<g id="XMLID_1_">
	<g>
		<path fill="#FFFFFF" d="M759.836,111.939c66.181,0,118.98,53.5,118.98,118.97c0,65.47-53.5,118.98-118.98,118.98h-124.6
			l-0.71-2.109l4.93-30.28h120.38c47.88,0,86.601-38.01,86.601-85.88c0-47.88-38.721-86.6-86.601-86.6
			c-4.92,0-9.149,0.71-14.08,1.41c-6.33,1.41-13.37-2.11-16.89-8.45c-21.83-39.42-62.66-64.06-107.71-64.06
			c-31.68,0-61.96,11.97-84.48,33.79c-22.529,21.83-35.909,51.39-37.319,83.07c0,6.34-3.521,11.27-9.15,14.08
			c-5.63,2.82-11.97,2.12-16.89-1.4c-10.561-7.75-23.24-11.27-35.91-11.27c-34.49,0-62.65,28.16-62.65,62.66
			c0,34.49,28.16,62.65,62.65,62.65h112.64l-26.75,33.09h-85.89c-52.8,0-95.74-42.94-95.74-95.74c0-52.8,42.94-95.75,95.74-95.75
			c11.27,0,21.83,2.12,31.68,5.64c6.34-30.98,21.12-59.14,44.36-80.96c29.56-28.16,67.58-43.65,107.71-43.65
			c53.5,0,102.78,27.45,130.939,71.81C754.916,111.939,757.026,111.939,759.836,111.939z"/>
		<path fill="#FFFFFF" d="M708.446,368.189c6.34,0,9.149,7.04,5.63,11.971l-169.66,197.12c-5.63,6.34-15.49,0-11.97-7.04
			l61.95-147.841c2.109-4.93-1.4-9.859-6.33-9.859h-74.63c-5.63,0-9.15-7.04-5.63-11.26l105.6-129.53
			c4.229-5.64,13.38-1.41,12.67,5.63l-13.37,82.37c-0.71,4.22,2.811,8.439,7.04,8.439H708.446z"/>
	</g>
	<g>
	</g>
</g>
</svg>
