<?xml version="1.0" encoding="utf-8"?>
<!-- Generator: Adobe Illustrator 16.0.0, SVG Export Plug-In . SVG Version: 6.00 Build 0)  -->
<!DOCTYPE svg PUBLIC "-//W3C//DTD SVG 1.1//EN" "http://www.w3.org/Graphics/SVG/1.1/DTD/svg11.dtd">
<svg version="1.1" id="Layer_1" xmlns="http://www.w3.org/2000/svg" xmlns:xlink="http://www.w3.org/1999/xlink" x="0px" y="0px"
	 width="368.017px" height="368.016px" viewBox="428.256 133.232 368.017 368.016"
	 enable-background="new 428.256 133.232 368.017 368.016" xml:space="preserve">
<g id="XMLID_1_">
	<g>
		<path fill="#FFFFFF" d="M791.522,348.478c4.221,4.23,5.63,10.561,4.221,16.19c-10.561,38.72-34.49,73.22-66.17,97.859
			c-33.091,25.341-72.521,38.721-114.051,38.721c-49.979,0-97.149-19.71-132.35-54.91c-35.21-35.2-54.92-82.37-54.92-132.35
			c0-41.54,13.38-80.961,38.72-114.051c24.65-31.68,59.141-55.62,97.86-66.18c5.63-1.41,11.97,0,16.189,4.23
			c4.23,4.22,5.63,10.56,4.23,16.19c-3.521,13.37-5.64,27.45-5.64,41.53c0,85.189,69,154.18,154.18,154.18
			c14.08,0,28.16-2.11,41.54-5.63C780.962,342.848,787.292,344.258,791.522,348.478z M709.852,435.777
			c19.011-14.789,34.5-33.09,44.36-54.21c-7.04,0.7-13.38,1.41-20.42,1.41c-49.98,0-97.15-19.72-132.351-54.91
			c-35.199-35.199-54.909-82.369-54.909-132.359c-0.71-7.04,0-14.08,0.699-21.12c-21.119,10.56-40.13,26.05-54.21,44.36
			c-21.12,27.449-31.68,59.84-31.68,94.329c0,85.19,68.99,154.181,154.18,154.181C650.012,467.458,682.402,456.188,709.852,435.777z
			"/>
	</g>
	<g>
	</g>
</g>
</svg>
