<?xml version="1.0" encoding="utf-8"?>
<!-- Generator: Adobe Illustrator 16.0.0, SVG Export Plug-In . SVG Version: 6.00 Build 0)  -->
<!DOCTYPE svg PUBLIC "-//W3C//DTD SVG 1.1//EN" "http://www.w3.org/Graphics/SVG/1.1/DTD/svg11.dtd">
<svg version="1.1" id="Layer_1" xmlns="http://www.w3.org/2000/svg" xmlns:xlink="http://www.w3.org/1999/xlink" x="0px" y="0px"
	 width="536.448px" height="544.704px" viewBox="343.776 43.648 536.448 544.704"
	 enable-background="new 343.776 43.648 536.448 544.704" xml:space="preserve">
<g id="XMLID_1_">
	<g>
		<path fill="#FFFFFF" d="M825.31,134.46c34.5,21.83,54.91,59.84,54.91,100.68c0,64.76-53.5,118.27-118.97,118.27H439.52
			c-52.8,0-95.74-42.95-95.74-95.75c0-52.8,42.94-95.04,95.74-95.04c10.56,0,21.12,2.12,31.68,4.93
			c6.34-30.27,21.82-58.43,44.35-80.96c28.87-28.16,66.88-42.94,107.01-42.94c53.5,0,102.08,27.45,130.94,71.81
			c2.82,0,4.93,0,7.75,0C783.78,115.46,806.3,121.79,825.31,134.46z M847.14,235.14c0-29.57-14.79-57.03-40.13-72.52
			c-14.08-9.15-29.569-13.37-46.47-13.37c-4.92,0-9.15,0.7-14.08,1.41c-7.04,1.4-14.08-2.12-16.89-8.45
			c-21.12-39.43-62.66-64.07-107.011-64.07c-31.68,0-61.95,11.97-84.479,33.8c-22.53,21.82-35.9,51.39-37.31,83.07
			c0,6.33-3.52,11.26-9.15,14.08c-5.64,2.81-11.97,2.11-16.9-1.41c-9.86-8.45-22.53-11.97-35.2-11.97
			c-34.5,0-62.66,28.16-62.66,62.66c0,34.49,28.16,62.65,62.66,62.65h321.73C808.42,321.02,847.14,282.3,847.14,235.14z"/>
		<path fill="#FFFFFF" d="M771.4,504.57c2.819,4.93,1.409,10.56-3.521,13.37l-11.26,6.34l11.26,6.34
			c4.93,2.11,6.34,8.439,3.521,13.37c-2.11,3.52-4.931,4.93-8.45,4.93c-1.41,0-3.521-0.7-4.931-1.41l-11.26-6.33v12.67
			c0,5.631-4.22,9.851-9.859,9.851c-5.631,0-9.851-4.22-9.851-9.851v-12.67l-11.27,6.33c-1.4,0.71-3.521,1.41-4.92,1.41
			c-3.521,0-6.341-2.11-8.45-4.93c-2.82-4.931-1.41-10.561,3.52-13.37l11.261-6.34l-11.261-6.34c-4.93-2.811-6.34-8.44-3.52-13.37
			c2.81-4.931,8.45-6.34,13.37-3.521l11.27,6.33v-12.67c0-5.63,4.22-9.85,9.851-9.85c5.64,0,9.859,4.22,9.859,9.85v12.67l11.26-6.33
			C762.95,498.23,768.58,499.64,771.4,504.57z"/>
		<path fill="#FFFFFF" d="M770.4,399.17c2.819,4.93,1.409,10.561-3.521,13.37l-11.26,6.34l11.26,6.34
			c4.93,2.11,6.34,8.44,3.521,13.37c-2.11,3.521-4.931,4.93-8.45,4.93c-1.41,0-3.521-0.699-4.931-1.409l-11.26-6.33v12.67
			c0,5.63-4.22,9.85-9.859,9.85c-5.631,0-9.851-4.22-9.851-9.85v-12.67l-11.27,6.33c-1.4,0.71-3.521,1.409-4.92,1.409
			c-3.521,0-6.341-2.109-8.45-4.93c-2.82-4.93-1.41-10.56,3.52-13.37l11.261-6.34l-11.261-6.34c-4.93-2.81-6.34-8.44-3.52-13.37
			c2.81-4.93,8.45-6.34,13.37-3.52l11.27,6.331v-12.67c0-5.63,4.22-9.85,9.851-9.85c5.64,0,9.859,4.22,9.859,9.85v12.67l11.26-6.331
			C761.95,392.83,767.58,394.24,770.4,399.17z"/>
		<path fill="#FFFFFF" d="M654.24,473.09c2.819,4.93,1.41,10.561-3.521,13.37l-11.26,6.34l10.56,6.34
			c4.921,2.11,6.33,8.44,4.221,13.37c-2.11,3.521-4.931,4.931-8.45,4.931c-1.41,0-3.521-0.7-4.93-1.41L629.6,509.7v12.67
			c0,5.63-4.22,9.85-9.859,9.85c-5.63,0-9.85-4.22-9.85-9.85V509.7l-11.27,6.33c-1.4,0.71-3.52,1.41-4.92,1.41
			c-3.52,0-6.34-2.11-8.45-4.931c-2.82-4.93-1.41-10.56,3.52-13.37l11.26-6.34l-11.26-6.34c-4.93-2.81-6.34-8.44-3.52-13.37
			c2.81-4.93,8.45-6.34,13.37-3.52l11.27,6.33v-12.67c0-5.631,4.22-9.851,9.85-9.851c5.64,0,9.859,4.22,9.859,9.851v12.67
			l11.261-6.33C645.79,466.75,651.42,468.16,654.24,473.09z"/>
		<path fill="#FFFFFF" d="M525,529.22c2.82,4.92,1.41,10.561-3.52,13.37l-11.26,6.34l11.26,6.33c4.93,2.82,6.34,8.45,3.52,13.38
			c-2.11,3.521-4.93,4.931-8.45,4.931c-1.41,0-3.52-0.71-4.93-1.41l-11.26-6.34v12.68c0,5.63-4.22,9.85-9.86,9.85
			c-5.63,0-9.85-4.22-9.85-9.85v-12.68l-11.27,6.34c-1.4,0.7-3.52,1.41-4.92,1.41c-3.52,0-6.34-2.11-8.45-4.931
			c-2.82-4.93-1.41-10.56,3.52-13.38l11.26-6.33l-11.26-6.34c-4.93-2.81-6.34-8.45-3.52-13.37c2.81-4.93,8.45-6.34,13.37-3.52
			l11.27,6.33v-12.67c0-5.63,4.22-9.86,9.85-9.86c5.64,0,9.86,4.23,9.86,9.86v12.67l11.26-6.33
			C516.55,522.88,522.18,524.29,525,529.22z"/>
		<path fill="#FFFFFF" d="M524,425.22c2.82,4.92,1.41,10.561-3.52,13.37l-11.26,6.34l11.26,6.33c4.93,2.82,6.34,8.45,3.52,13.38
			c-2.11,3.521-4.93,4.931-8.45,4.931c-1.41,0-3.52-0.71-4.93-1.41l-11.26-6.34v12.68c0,5.63-4.22,9.85-9.86,9.85
			c-5.63,0-9.85-4.22-9.85-9.85v-12.68l-11.27,6.34c-1.4,0.7-3.52,1.41-4.92,1.41c-3.52,0-6.34-2.11-8.45-4.931
			c-2.82-4.93-1.41-10.56,3.52-13.38l11.26-6.33l-11.26-6.34c-4.93-2.81-6.34-8.45-3.52-13.37c2.81-4.93,8.45-6.34,13.37-3.52
			l11.27,6.33v-12.67c0-5.63,4.22-9.86,9.85-9.86c5.64,0,9.86,4.23,9.86,9.86v12.67l11.26-6.33
			C515.55,418.88,521.18,420.29,524,425.22z"/>
	</g>
	<g>
	</g>
</g>
</svg>
