<?xml version="1.0" encoding="utf-8"?>
<!-- Generator: Adobe Illustrator 16.0.0, SVG Export Plug-In . SVG Version: 6.00 Build 0)  -->
<!DOCTYPE svg PUBLIC "-//W3C//DTD SVG 1.1//EN" "http://www.w3.org/Graphics/SVG/1.1/DTD/svg11.dtd">
<svg version="1.1" id="Layer_1" xmlns="http://www.w3.org/2000/svg" xmlns:xlink="http://www.w3.org/1999/xlink" x="0px" y="0px"
	 width="536.449px" height="551.936px" viewBox="527.255 40.832 536.449 551.936"
	 enable-background="new 527.255 40.832 536.449 551.936" xml:space="preserve">
<g id="XMLID_1_">
	<g>
		<path fill="#FFFFFF" d="M1036.955,282.308c9.149,0,16.89,7.74,16.89,16.891c0,9.149-7.74,16.899-16.89,16.899h-64.07
			c-9.15,0-16.891-7.75-16.891-16.899c0-9.15,7.74-16.891,16.891-16.891H1036.955z"/>
		<path fill="#FFFFFF" d="M944.724,353.408c65.48,0,118.98,53.5,118.98,119.68c0,65.47-53.5,119.68-119.681,119.68h-321.02
			c-52.8,0-95.75-42.939-95.75-95.74c0-52.8,42.95-96.449,95.75-96.449c10.56,0,21.12,2.109,30.97,4.93
			c4.23-20.42,12.68-40.13,24.64-57.03c-6.33-15.479-10.56-32.38-10.56-49.979c0-70.4,57.03-127.42,127.43-127.42
			c70.4,0,127.42,57.02,127.42,127.42c0,10.56-1.41,21.12-4.22,31.68c7.04,7.04,12.67,14.78,18.3,23.23
			C939.804,353.408,941.915,353.408,944.724,353.408z M1030.614,473.088c0-47.17-38.72-85.89-85.89-85.89
			c-4.93,0-9.15,0.71-14.08,1.409c-7.04,1.41-14.08-2.109-17.6-8.449c-6.33-11.971-14.78-22.53-24.641-31.681
			c-2.81-2.109-5.63-4.93-8.449-7.04c-0.7-0.7-1.4-0.7-1.4-1.41c-2.12-1.399-4.93-3.52-7.04-4.92c-0.71-0.71-1.41-0.71-2.11-1.409
			c-2.819-1.41-5.64-3.521-8.449-4.931c-0.711,0-1.41-0.7-2.11-0.7c-2.12-1.409-4.93-2.119-7.04-3.52
			c-0.71-0.71-2.12-0.71-2.82-1.41c-2.109-0.71-4.93-1.41-7.04-2.82c-0.7,0-1.41-0.699-2.109-0.699c-2.82-0.71-6.341-1.41-9.86-2.11
			c-0.7,0-2.11,0-2.81-0.71c-2.82-0.7-4.931-0.7-7.75-1.41c-0.7,0-2.11,0-2.811,0c-3.52,0-7.04-0.7-10.56-0.7
			c-4.23,0-8.45,0-12.67,0.7c-1.41,0-2.82,0.71-4.23,0.71c-2.81,0.7-5.63,0.7-8.45,1.41c-1.399,0-3.52,0.7-4.93,1.4
			c-2.81,0.71-4.92,1.409-7.74,2.119c-1.41,0.7-3.52,1.4-4.93,1.4c-2.11,0.71-4.92,2.12-7.04,2.82c-1.4,0.7-2.811,1.41-4.93,2.109
			c-2.11,1.41-4.92,2.82-7.03,3.521c-1.41,0.71-2.82,1.41-4.23,2.109c-3.52,2.11-7.04,4.23-9.85,7.04
			c-0.71,0.71-1.41,1.41-2.12,2.11c-2.81,2.12-4.93,4.23-7.74,7.04c-0.699,0.71-2.109,2.12-2.819,2.82
			c-2.11,2.109-4.221,4.22-6.33,7.04c-16.9,20.42-26.75,45.76-27.46,71.81c0,6.33-3.521,11.26-9.15,14.08
			c-5.63,2.81-11.97,2.11-16.9-1.41c-10.56-7.04-22.52-11.26-35.199-11.26c-34.49,0-62.65,28.16-62.65,62.65
			c0,34.5,28.16,62.659,62.65,62.659h321.729C991.894,558.978,1030.614,520.258,1030.614,473.088z M888.415,306.237
			c0-2.109,0-4.93,0-7.039c0-52.09-42.24-93.63-93.641-93.63c-51.39,0-92.93,41.54-92.93,93.63c0,7.039,0.71,14.079,2.12,21.119
			c1.399-0.699,2.109-2.109,3.52-2.81c1.4-1.41,2.811-2.12,4.221-3.521c2.109-2.119,4.93-3.52,7.039-4.93
			c1.41-0.71,2.82-2.109,4.221-2.82c2.819-1.409,4.93-2.81,7.75-4.22c1.41-0.71,2.81-1.41,4.93-2.819
			c2.811-1.41,5.63-2.811,8.45-3.521c1.399-0.7,3.52-1.41,4.92-2.11c2.82-1.409,5.64-2.109,8.45-2.819c1.41-0.7,3.52-1.4,4.93-1.4
			c2.811-0.71,5.63-1.41,9.15-2.12c1.41-0.7,3.52-0.7,4.93-1.399c3.52-0.71,6.33-0.71,9.86-1.41c1.399,0,2.81-0.71,4.22-0.71
			c4.93-0.7,9.86-0.7,14.78-0.7c3.52,0,7.04,0,10.56,0.7c1.41,0,2.12,0,3.521,0c2.119,0,4.229,0.71,7.04,0.71
			c1.409,0,2.819,0.7,4.229,0.7c2.11,0,4.22,0.71,5.63,1.409c1.41,0,2.82,0.7,4.22,0.7c2.12,0.71,3.521,0.71,5.641,1.41
			c1.41,0.71,2.81,0.71,4.93,1.41c2.11,0.7,3.521,1.41,5.63,1.41c1.4,0.7,2.811,0.7,4.221,1.41c2.109,0.699,3.52,1.399,5.63,2.109
			c1.409,0.7,2.819,1.41,4.229,2.11c2.11,0.7,4.22,2.11,5.63,2.82c0.7,0.699,2.11,0.699,2.82,1.399
			C882.074,302.718,885.594,304.828,888.415,306.237z"/>
		<path fill="#FFFFFF" d="M977.814,116.868c6.34,6.33,6.34,16.89,0,23.23l-45.05,45.05c-3.521,3.52-7.75,4.93-11.97,4.93
			c-4.23,0-8.45-1.41-11.271-4.93c-6.33-6.33-6.33-16.89,0-23.23l45.061-45.05C960.924,110.528,971.484,110.528,977.814,116.868z"/>
		<path fill="#FFFFFF" d="M813.084,57.728v64.06c0,9.16-7.75,16.9-16.9,16.9s-16.9-7.74-16.9-16.9v-64.06
			c0-9.15,7.75-16.9,16.9-16.9S813.084,48.578,813.084,57.728z"/>
		<path fill="#FFFFFF" d="M682.134,161.918c6.34,6.34,6.34,16.9,0,23.23c-3.521,3.52-7.74,4.93-11.97,4.93
			c-4.221,0-8.44-1.41-11.96-4.93l-44.36-45.05c-6.33-6.34-6.33-16.9,0-23.23c6.34-6.34,16.899-6.34,23.24,0L682.134,161.918z"/>
		<path fill="#FFFFFF" d="M618.774,281.598c9.15,0,16.9,7.75,16.9,16.9c0,9.149-7.75,16.89-16.9,16.89h-64.06
			c-9.15,0-16.9-7.74-16.9-16.89c0-9.15,7.75-16.9,16.9-16.9H618.774z"/>
	</g>
	<g>
	</g>
</g>
</svg>
