<?xml version="1.0" encoding="utf-8"?>
<!-- Generator: Adobe Illustrator 16.0.0, SVG Export Plug-In . SVG Version: 6.00 Build 0)  -->
<!DOCTYPE svg PUBLIC "-//W3C//DTD SVG 1.1//EN" "http://www.w3.org/Graphics/SVG/1.1/DTD/svg11.dtd">
<svg version="1.1" id="Layer_1" xmlns="http://www.w3.org/2000/svg" xmlns:xlink="http://www.w3.org/1999/xlink" x="0px" y="0px"
	 width="537.152px" height="537.152px" viewBox="347.296 53.504 537.152 537.152"
	 enable-background="new 347.296 53.504 537.152 537.152" xml:space="preserve">
<g>
	<path fill="#FFFFFF" d="M615.52,454.08c-72.512,0-132.352-59.136-132.352-132.354c0-73.214,59.136-132.352,132.352-132.352
		c73.218,0,132.354,59.136,132.354,132.352C747.872,394.944,688.736,454.08,615.52,454.08z M615.52,222.464
		c-54.91,0-99.264,44.352-99.264,99.264c0,54.912,44.354,99.266,99.264,99.266c54.912,0,99.266-44.354,99.266-99.265
		C714.784,266.816,670.432,222.464,615.52,222.464z"/>
	<g>
		<path fill="#FFFFFF" d="M615.52,152.768c-9.15,0-16.19-7.04-16.19-16.192v-66.88c0-9.152,7.04-16.192,16.19-16.192
			c9.152,0,16.192,7.04,16.192,16.192v66.88C632.416,145.024,624.672,152.768,615.52,152.768z"/>
		<path fill="#FFFFFF" d="M615.52,590.656c-9.15,0-16.19-7.04-16.19-16.192v-66.88c0-9.152,7.04-16.192,16.19-16.192
			c9.152,0,16.192,7.04,16.192,16.192v66.88C632.416,582.912,624.672,590.656,615.52,590.656z"/>
	</g>
	<g>
		<path fill="#FFFFFF" d="M747.168,206.976c-4.224,0-8.448-1.408-11.968-4.928c-6.336-6.336-6.336-16.896,0-23.232l47.168-47.168
			c6.336-6.336,16.896-6.336,23.231,0c6.334,6.336,6.336,16.896,0,23.232l-47.169,47.168
			C755.616,205.568,751.393,206.976,747.168,206.976z"/>
		<path fill="#FFFFFF" d="M437.408,516.736c-4.226,0-8.448-1.408-11.968-4.93c-6.337-6.336-6.337-16.896,0-23.23l47.168-47.168
			c6.336-6.336,16.896-6.336,23.23,0s6.336,16.896,0,23.23l-47.168,47.168C445.856,515.328,441.632,516.736,437.408,516.736z"/>
	</g>
	<g>
		<path fill="#FFFFFF" d="M868.256,337.92h-66.88c-9.152,0-16.192-7.04-16.192-16.191s7.04-16.191,16.192-16.191h66.88
			c9.152,0,16.192,7.04,16.192,16.191S876.704,337.92,868.256,337.92z"/>
		<path fill="#FFFFFF" d="M430.368,337.92h-66.88c-9.152,0-16.192-7.04-16.192-16.191s7.04-16.191,16.192-16.191h66.88
			c9.151,0,16.19,7.04,16.19,16.191C446.561,330.88,439.52,337.92,430.368,337.92z"/>
	</g>
	<g>
		<path fill="#FFFFFF" d="M794.336,516.736c-4.224,0-8.448-1.408-11.968-4.93L735.2,464.64c-6.336-6.336-6.336-16.896,0-23.23
			s16.896-6.336,23.23,0l47.168,47.168c6.337,6.336,6.337,16.896,0,23.23C802.784,515.328,798.561,516.736,794.336,516.736z"/>
		<path fill="#FFFFFF" d="M484.576,206.976c-4.226,0-8.448-1.408-11.968-4.928L425.44,154.88c-6.337-6.336-6.337-16.896,0-23.232
			c6.336-6.336,16.896-6.336,23.23,0l47.168,47.168c6.336,6.336,6.336,16.896,0,23.232
			C493.024,205.568,488.8,206.976,484.576,206.976z"/>
	</g>
</g>
</svg>
