<?xml version="1.0" encoding="utf-8"?>
<!-- Generator: Adobe Illustrator 16.0.0, SVG Export Plug-In . SVG Version: 6.00 Build 0)  -->
<!DOCTYPE svg PUBLIC "-//W3C//DTD SVG 1.1//EN" "http://www.w3.org/Graphics/SVG/1.1/DTD/svg11.dtd">
<svg version="1.1" id="Layer_1" xmlns="http://www.w3.org/2000/svg" xmlns:xlink="http://www.w3.org/1999/xlink" x="0px" y="0px"
	 width="537.152px" height="464.646px" viewBox="343.072 84.474 537.152 464.646"
	 enable-background="new 343.072 84.474 537.152 464.646" xml:space="preserve">
<g id="XMLID_1_">
	<g>
		<path fill="#FFFFFF" d="M831.646,334.403c30.979,22.52,48.58,57.72,48.58,95.74c0,65.47-53.511,118.979-118.98,118.979H439.516
			c-52.801,0-95.74-42.95-96.44-95.75c0-29.569,14.08-56.319,35.2-73.92c-12.681-17.6-19.72-39.42-19.72-61.95
			c0-59.14,47.88-107.01,107.01-106.3c2.109,0,3.52,0,5.63,0c23.24-35.91,61.96-59.14,104.189-62.66
			c10.57-20.42,26.051-36.61,45.771-47.87c22.52-12.67,48.57-18.31,73.92-15.49c9.15,0.7,18.3,2.82,27.45,6.34
			c38.02,14.08,66.18,45.76,75.33,84.48c1.41,0.7,2.109,0.7,3.52,1.4c48.58,17.6,73.22,71.11,55.62,119.68
			C851.366,311.873,842.916,324.543,831.646,334.403z M848.545,429.443c0-29.57-15.489-56.32-40.13-72.521
			c-14.08-8.439-30.27-13.369-46.46-13.369c-4.93,0-9.16,0.699-14.09,1.409c-6.33,1.4-13.37-2.12-16.89-8.449
			c-21.82-39.421-62.66-64.061-107.71-64.061c-31.681,0-61.96,11.96-84.48,33.79c-22.53,21.82-35.91,51.39-37.32,83.07
			c0,6.34-3.51,11.26-9.149,14.08c-5.63,2.819-11.96,2.109-16.891-1.41c-10.56-7.74-23.229-11.26-35.909-11.26
			c-34.49,0-62.65,28.159-62.65,62.649c0,34.5,28.16,62.66,62.65,62.66h321.729C808.416,516.033,847.135,477.313,848.545,429.443z
			 M826.715,285.823c11.271-31.68-4.92-66.18-35.899-77.44c-2.82-1.41-5.63-2.11-9.15-2.82c-7.04-1.4-12.67-7.04-13.38-14.08
			c-4.92-31.68-26.05-57.72-56.32-68.99c-7.04-2.81-13.37-4.22-20.409-4.93c-30.271-2.81-59.141,9.86-77.44,32.39
			c2.81,0.7,4.92,0.7,7.04,1.41c28.86,7.04,54.91,23.23,73.92,46.46c19,23.23,30.27,50.69,31.68,80.96
			c10.551,9.86,19.71,20.42,27.45,32.38c2.82,0,4.93,0,7.75,0c12.67,0,26.04,2.12,38.01,6.34
			C811.936,310.463,821.786,299.203,826.715,285.823z M688.036,253.443c-11.27-34.5-39.43-61.96-75.33-70.4
			c-8.45-2.12-16.899-2.82-25.34-2.82c-38.73,0-74.63,21.12-92.93,55.62c-2.82,6.33-9.86,9.851-16.9,8.44
			c-4.22-0.7-7.74-0.7-11.97-0.7c-40.83,0-73.92,33.09-73.92,73.92c0,16.9,5.64,33.09,15.489,45.761
			c9.86-3.521,20.41-5.631,31.681-5.631c11.26,0,21.819,2.11,31.68,5.631c6.34-30.98,21.12-59.141,44.35-80.96
			c29.57-28.16,67.591-43.65,107.711-43.65C645.795,238.653,667.616,244.283,688.036,253.443z"/>
	</g>
	<g>
	</g>
</g>
</svg>
