<?xml version="1.0" encoding="utf-8"?>
<!-- Generator: Adobe Illustrator 16.0.0, SVG Export Plug-In . SVG Version: 6.00 Build 0)  -->
<!DOCTYPE svg PUBLIC "-//W3C//DTD SVG 1.1//EN" "http://www.w3.org/Graphics/SVG/1.1/DTD/svg11.dtd">
<svg version="1.1" id="Layer_1" xmlns="http://www.w3.org/2000/svg" xmlns:xlink="http://www.w3.org/1999/xlink" x="0px" y="0px"
	 width="537.153px" height="504.269px" viewBox="343.775 64.767 537.153 504.269"
	 enable-background="new 343.775 64.767 537.153 504.269" xml:space="preserve">
<g>
	<g>
		<path fill="#F5F6F7" d="M787.296,559.68c10.562-12.672,14.784-41.536,15.488-48.576c0-0.702-0.704-1.406-1.408-1.406
			c-7.744,0.704-35.904,4.928-48.576,15.486c-0.704,0.704-1.408,0.704-1.408,1.408c-7.04,7.04-11.968,23.232,0,35.2l0,0l0,0
			c11.97,11.968,27.456,7.04,35.2,0C785.888,560.384,786.592,559.68,787.296,559.68z"/>
		<path fill="#F5F6F7" d="M654.944,559.68c10.56-12.672,14.783-41.536,15.486-48.576c0-0.702-0.703-1.406-1.406-1.406
			c-7.744,0.704-35.904,4.928-48.576,15.486c-0.704,0.704-1.408,0.704-1.408,1.408c-7.04,7.04-11.968,23.232,0,35.2l0,0l0,0
			c11.968,11.968,27.456,7.04,35.2,0C653.536,560.384,654.24,559.68,654.944,559.68z"/>
		<path fill="#F5F6F7" d="M522.592,559.68c10.562-12.672,14.784-41.536,15.488-48.576c0-0.702-0.704-1.406-1.408-1.406
			c-7.744,0.704-35.904,4.928-48.576,15.486c-0.704,0.704-1.408,0.704-1.408,1.408c-7.039,7.04-11.968,23.232,0,35.2l0,0l0,0
			c11.97,11.968,27.456,7.04,35.2,0C521.184,560.384,521.888,559.68,522.592,559.68z"/>
	</g>
	<g>
		<path fill="#F5F6F7" d="M727.456,462.528c10.56-12.672,14.784-41.536,15.488-48.576c0-0.704-0.704-1.408-1.408-1.408
			c-7.744,0.704-35.904,4.928-48.576,15.488c-0.704,0.704-1.408,0.704-1.408,1.408c-7.04,7.04-11.968,23.23,0,35.198l0,0l0,0
			c11.968,11.97,27.456,7.04,35.2,0C726.752,463.936,727.456,463.232,727.456,462.528z"/>
		<path fill="#F5F6F7" d="M595.104,462.528c10.562-12.672,14.784-41.536,15.488-48.576c0-0.704-0.704-1.408-1.408-1.408
			c-7.742,0.704-35.902,4.928-48.574,15.488c-0.704,0.704-1.408,0.704-1.408,1.408c-7.04,7.04-11.969,23.23,0,35.198l0,0l0,0
			c11.968,11.97,27.456,7.04,35.2,0C594.4,463.936,595.104,463.232,595.104,462.528z"/>
		<path fill="#F5F6F7" d="M462.752,462.528c10.561-12.672,14.784-41.536,15.488-48.576c0-0.704-0.704-1.408-1.408-1.408
			c-7.744,0.704-35.904,4.928-48.576,15.488c-0.704,0.704-1.408,0.704-1.408,1.408c-7.04,7.04-11.968,23.23,0,35.198l0,0l0,0
			c11.97,11.97,27.456,7.04,35.2,0C462.048,463.936,462.752,463.232,462.752,462.528z"/>
	</g>
	<path fill="#F5F6F7" d="M761.248,375.232H439.52c-52.799,0-95.744-42.944-95.744-95.745c0-52.8,42.944-95.744,95.744-95.744
		c10.562,0,21.12,2.112,31.682,5.632c6.336-30.272,21.824-58.432,44.352-80.96c28.864-28.16,66.88-43.648,107.712-43.648
		c53.505,0,102.784,27.456,130.944,71.808c2.816,0,4.928,0,7.744,0c65.472,0,118.976,53.504,118.976,118.976
		C880.224,321.728,826.72,375.232,761.248,375.232z M439.52,216.832c-34.494,0-62.654,28.16-62.654,62.655
		c0,34.498,28.16,62.656,62.654,62.656h321.729c47.872,0,86.592-38.72,86.592-86.592c0-47.872-38.72-86.592-86.592-86.592
		c-4.928,0-9.152,0.704-14.08,1.408c-7.04,1.408-14.08-2.112-16.896-8.448c-21.119-39.424-62.655-64.064-107.713-64.064
		c-31.68,0-61.95,11.968-84.479,33.792c-22.528,21.824-35.904,51.392-37.312,83.072c0,6.336-3.52,11.264-9.15,14.08
		c-5.632,2.816-11.968,2.112-16.896-1.408C464.16,221.056,452.192,216.832,439.52,216.832z"/>
</g>
</svg>
